<svg version="1.2" xmlns="http://www.w3.org/2000/svg" viewBox="0 0 512 512" width="512" height="512"><style>.a{fill:#fea116}</style><path fill-rule="evenodd" class="a" d="m512 464c0 26.5-21.5 48-48 48h-416c-26.5 0-48-21.5-48-48v-263.3c0-3.6 0.4-7.2 1.2-10.8 0.8-3.5 2.1-6.9 3.6-10.2 1.6-3.2 3.6-6.3 5.9-9.1 2.2-2.9 4.8-5.4 7.7-7.7 24.9-19.5 45.5-35.3 164.2-121.5 16.8-12.2 50.2-41.7 73.4-41.4 23.2-0.4 56.6 29.2 73.4 41.4 118.7 86.2 139.3 102 164.2 121.5 2.9 2.3 5.5 4.8 7.7 7.7 2.3 2.8 4.3 5.9 5.9 9.1 1.5 3.3 2.8 6.7 3.6 10.2 0.8 3.6 1.2 7.2 1.2 10.8zm-65.7-196.6c-2.5-3.7-7.7-4.6-11.3-1.9-22.9 16.9-55.5 40.7-105.6 77.1-16.8 12.3-50.2 41.8-73.4 41.4-23.2 0.4-56.6-29.1-73.4-41.4-50.1-36.4-82.7-60.2-105.6-77.1-3.6-2.7-8.8-1.8-11.3 1.9l-9.1 13.2q-0.9 1.3-1.2 2.8-0.4 1.5-0.1 3.1 0.3 1.5 1.1 2.8 0.8 1.4 2 2.3c22.9 16.9 55.5 40.7 105.3 76.8 20.3 14.8 56.6 47.9 92.3 47.6 35.7 0.3 72-32.7 92.3-47.6 49.8-36.1 82.4-59.9 105.3-76.8q1.2-0.9 2-2.3 0.8-1.3 1.1-2.8 0.3-1.6-0.1-3.1-0.3-1.5-1.2-2.8z"/></svg>