<svg version="1.2" xmlns="http://www.w3.org/2000/svg" viewBox="0 0 50 50" width="50" height="50"><style>.a{fill:#fff}</style><path class="a" d="m48.6 35.3l-11-4.7q-0.3-0.1-0.7-0.1-0.4-0.1-0.7 0-0.4 0.1-0.7 0.3-0.4 0.2-0.6 0.5l-4.8 5.9q-2.9-1.3-5.4-3.1-2.6-1.8-4.8-4-2.2-2.2-4-4.8-1.8-2.5-3.1-5.4l5.9-4.8q0.3-0.3 0.5-0.6 0.2-0.3 0.3-0.7 0.1-0.3 0-0.7 0-0.4-0.2-0.7l-4.6-11q-0.2-0.4-0.5-0.7-0.3-0.3-0.6-0.4-0.4-0.2-0.8-0.3-0.4 0-0.8 0.1l-10.2 2.3q-0.4 0.1-0.7 0.3-0.3 0.2-0.6 0.5-0.2 0.3-0.4 0.7-0.1 0.4-0.1 0.8c0 25 20.3 45.3 45.3 45.3q0.4 0 0.8-0.1 0.4-0.2 0.7-0.4 0.3-0.3 0.5-0.6 0.2-0.3 0.3-0.7l2.3-10.2q0.1-0.4 0.1-0.8-0.1-0.4-0.3-0.8-0.1-0.3-0.4-0.6-0.3-0.3-0.7-0.5z"/></svg>