<svg version="1.2" xmlns="http://www.w3.org/2000/svg" viewBox="0 0 50 38" width="50" height="38"><style>.a{fill:#fff}</style><path fill-rule="evenodd" class="a" d="m34 23.8c-2 1.5-5.5 4.7-9 4.7-3.5 0-6.9-3.2-9-4.7-10-7.3-12.9-9.5-15.1-11.2-0.3-0.3-0.9-0.1-0.9 0.4v20.2c0 2.7 2.1 4.8 4.7 4.8h40.6c2.6 0 4.7-2.1 4.7-4.8v-20.2c0-0.5-0.6-0.8-0.9-0.5-2.2 1.8-5.1 4-15.1 11.3zm-9 1.5c2.3 0.1 5.5-2.9 7.2-4.1 12.9-9.5 13.9-10.3 16.9-12.7 0.6-0.4 0.9-1.1 0.9-1.9v-1.9c0-2.6-2.1-4.7-4.7-4.7h-40.6c-2.6 0-4.7 2.1-4.7 4.7v1.9c0 0.8 0.3 1.4 0.9 1.9 3 2.4 4 3.2 16.9 12.7 1.7 1.2 4.9 4.2 7.2 4.1z"/></svg>