<svg version="1.2" xmlns="http://www.w3.org/2000/svg" viewBox="0 0 512 512" width="512" height="512"><style>.a{fill:#fea116}</style><path fill-rule="evenodd" class="a" d="m497.9 270.1c9 9 14.1 21.2 14.1 33.9 0 12.7-5.1 24.9-14.1 33.9-9 9-21.2 14.1-33.9 14.1h-416c-12.7 0-24.9-5.1-33.9-14.1-9-9-14.1-21.2-14.1-33.9 0-12.7 5.1-24.9 14.1-33.9 9-9 21.2-14.1 33.9-14.1h416c12.7 0 24.9 5.1 33.9 14.1zm-11.8 115.1c2 0.8 3.7 2 5.2 3.5 1.5 1.5 2.7 3.2 3.5 5.2 0.8 1.9 1.2 4 1.2 6.1v16c0 8.4-1.7 16.7-4.9 24.5-3.2 7.8-7.9 14.8-13.8 20.8-6 5.9-13 10.6-20.8 13.8-7.8 3.2-16.1 4.9-24.5 4.9h-352c-8.4 0-16.7-1.7-24.5-4.9-7.8-3.2-14.8-7.9-20.8-13.8-5.9-6-10.6-13-13.8-20.8-3.2-7.8-4.9-16.1-4.9-24.5v-16c0-2.1 0.4-4.2 1.2-6.1 0.8-2 2-3.7 3.5-5.2 1.5-1.5 3.2-2.7 5.2-3.5 1.9-0.8 4-1.2 6.1-1.2h448c2.1 0 4.2 0.4 6.1 1.2zm-462.3-237.1c40.2-64.9 128.7-116 232.2-116.1 103.6 0.1 192 51.2 232.2 116.1 19.8 32-0.3 75.9-34.8 75.9h-394.8c-34.5 0-54.6-43.9-34.8-75.9zm354.1-34.9c-2 0.8-3.7 2-5.2 3.5-1.5 1.5-2.7 3.2-3.5 5.2-0.8 1.9-1.2 4-1.2 6.1 0 6.5 3.9 12.3 9.9 14.8 6 2.5 12.8 1.1 17.4-3.5 4.6-4.6 6-11.4 3.5-17.4-2.5-6-8.3-9.9-14.8-9.9-2.1 0-4.2 0.4-6.1 1.2zm-128-32c-2 0.8-3.7 2-5.2 3.5-1.5 1.5-2.7 3.2-3.5 5.2-0.8 1.9-1.2 4-1.2 6.1 0 6.5 3.9 12.3 9.9 14.8 6 2.5 12.8 1.1 17.4-3.5 4.6-4.6 6-11.4 3.5-17.4-2.5-6-8.3-9.9-14.8-9.9-2.1 0-4.2 0.4-6.1 1.2zm-128 32c-2 0.8-3.7 2-5.2 3.5-1.5 1.5-2.7 3.2-3.5 5.2-0.8 1.9-1.2 4-1.2 6.1 0 6.5 3.9 12.3 9.9 14.8 6 2.5 12.8 1.1 17.4-3.5 4.6-4.6 6-11.4 3.5-17.4-2.5-6-8.3-9.9-14.8-9.9-2.1 0-4.2 0.4-6.1 1.2z"/></svg>