<svg version="1.2" xmlns="http://www.w3.org/2000/svg" viewBox="0 0 100 123" width="100" height="123"><style>.a{fill:#fea116}</style><path fill-rule="evenodd" class="a" d="m50 3.7c0.2 1.1 3.8 22.7 3.8 30.9 0 12.6-6.6 21.5-16.5 25.1l3.1 57.2c0.2 3.3-2.5 6.1-5.8 6.1h-15.4c-3.3 0-5.9-2.8-5.7-6.1l3.1-57.2c-9.9-3.6-16.6-12.6-16.6-25.1 0-8.3 3.7-29.8 3.9-30.9 0.7-4.9 10.9-5 11.5 0.2v33.9c0.3 0.9 3.6 0.8 3.8 0 0.4-6 1.9-33.4 2-34 0.7-5 10.7-5 11.5 0 0 0.6 1.6 28 1.9 34 0.2 0.8 3.5 0.9 3.8 0v-33.9c0.7-5.2 10.8-5.1 11.6-0.2zm44.2-3.7c3.2 0 5.8 2.6 5.8 5.8v111.4c0 3.2-2.6 5.8-5.8 5.8h-13.4c-3.4 0-6.1-2.9-5.8-6.2l3.6-44.5c-37.6-29.4-4.2-72.3 15.6-72.3z"/></svg>